# xmcd CD database file
#
# Track frame offsets:
#	225
#	11531
#	21989
#	34462
#	51673
#	63065
#	74056
#	86722
#	104414
#	115608
#	128445
#	138626
#	147561
#	159776
#	167592
#	178943
#
# Disc length: 2523 seconds
#
# Revision: 4
# Processed by: cddbd v1.5.1PL0 Copyright (c) Steve Scherf et al.
# Submitted via: CDex 1.51
#
DISCID=e709d810
DTITLE=Sigge och Jalle - Hallå ja
DYEAR=2005
DGENRE=Jazz
TTITLE0=Inga problem med att leva
TTITLE1=Hjärna på semester
TTITLE2=Snygg
TTITLE3=Gör inget förr'ns du hör från mig
TTITLE4=I alla fall mig
TTITLE5=Det skulle va'tt jag
TTITLE6=Bagateller
TTITLE7=Så nära som du
TTITLE8=Hur kan man sjunka så lågt
TTITLE9=Mist förstånd
TTITLE10=Julefrid
TTITLE11=Vild man
TTITLE12=Sagolikt säkert sex
TTITLE13=Ränna runt
TTITLE14=Är du omskuren ännu Klas-Göran
TTITLE15=Cykelsång
EXTD=YEAR: 2005
EXTT0=
EXTT1=
EXTT2=
EXTT3=
EXTT4=
EXTT5=
EXTT6=
EXTT7=
EXTT8=
EXTT9=
EXTT10=
EXTT11=
EXTT12=
EXTT13=
EXTT14=
EXTT15=
PLAYORDER=
